<?xml version="1.0" standalone="no"?>
<!DOCTYPE svg PUBLIC "-//W3C//DTD SVG 20010904//EN"
 "http://www.w3.org/TR/2001/REC-SVG-20010904/DTD/svg10.dtd">
<svg version="1.0" xmlns="http://www.w3.org/2000/svg"
 width="512.000000pt" height="512.000000pt" viewBox="0 0 512.000000 512.000000"
 preserveAspectRatio="xMidYMid meet">
<metadata>
Created by potrace 1.14, written by Peter Selinger 2001-2017
</metadata>
<g transform="translate(0.000000,512.000000) scale(0.100000,-0.100000)"
fill="#000000" stroke="none">
<path d="M2328 4285 c-707 -97 -1295 -626 -1459 -1314 -189 -791 187 -1603
911 -1966 561 -281 1230 -239 1750 110 837 562 1022 1718 403 2513 -380 487
-997 740 -1605 657z m622 -730 c121 -21 286 -76 370 -122 170 -92 277 -191
599 -552 304 -340 278 -304 249 -340 -239 -294 -558 -626 -695 -724 -165 -118
-364 -205 -566 -249 -89 -19 -132 -22 -342 -22 -212 0 -252 2 -342 22 -325 71
-600 233 -863 508 -47 49 -157 172 -244 274 -87 102 -166 193 -174 202 -18 21
-27 9 179 244 389 446 634 626 995 729 160 46 248 54 504 51 165 -2 263 -9
330 -21z"/>
<path d="M2407 3470 c-357 -65 -638 -321 -739 -675 -20 -69 -23 -102 -22 -240
0 -144 3 -169 27 -248 97 -317 332 -548 652 -639 69 -20 102 -23 240 -22 144
0 169 3 248 27 317 97 548 332 639 652 20 69 23 102 22 240 0 144 -3 169 -27
248 -96 315 -333 548 -647 637 -84 24 -309 36 -393 20z"/>
</g>
</svg>
